# xmcd
#
# Track frame offsets: 
#        175
#        19227
#        37845
#        58765
#        80975
#        99015
#        120382
#        136832
#        154645
#        179350
#
# Disc length: 2625 seconds
#
# Revision: 1
# Processed by: cddbd v1.5.2PL0 Copyright (c) Steve Scherf et al.
# Submitted via: ExactAudioCopy v0.95b4
#
DISCID=740a3f0a
DTITLE=George Porter Jr. - Runnin' Partner
DYEAR=1900
DGENRE=R&B
TTITLE0=Rough Spots
TTITLE1=Woogie Boogie
TTITLE2=Don't You Make Me Act Ig'nunt
TTITLE3=Concentrate On Work
TTITLE4=Runnin' Partner
TTITLE5=Happy Song
TTITLE6=Without Your Love
TTITLE7=More BTU's
TTITLE8=D.T.P.
TTITLE9=I Wish
EXTD=
EXTT0=
EXTT1=
EXTT2=
EXTT3=
EXTT4=
EXTT5=
EXTT6=
EXTT7=
EXTT8=
EXTT9=
PLAYORDER=
